<svg xmlns="http://www.w3.org/2000/svg" viewBox="0 0 722.38 150"><defs><style>.cls-1{fill:#38b734;}.cls-2{fill:#aa6c39;}.cls-3{fill:#6834b7;}</style></defs><title>Asset 9</title><g id="Layer_2" data-name="Layer 2"><g id="Layer_1-2" data-name="Layer 1"><path class="cls-1" d="M281.9,112.52v32h-4.32V112.52Z"/><path class="cls-1" d="M311.24,110.53v27.88c0,2.21.06,4.39.19,6.06h-3.9l-.2-4.33h-.09c-1.46,2.87-4.59,4.89-8.77,4.89-6.11,0-10.89-4.86-10.89-11.6C287.53,125.92,292.73,121,299,121c4.12,0,6.75,1.94,7.82,3.73h.09V110.53Zm-4.32,20.55a8,8,0,0,0-.21-1.88,7,7,0,0,0-6.92-4.9c-4.74,0-7.84,3.63-7.84,8.83,0,4.59,2.68,8.45,7.8,8.45a7.17,7.17,0,0,0,6.95-5.37,7,7,0,0,0,.22-1.88Z"/><path class="cls-1" d="M321.06,133.9c.1,5.17,3.95,7.77,8.65,7.77a18,18,0,0,0,7.2-1.27l.77,3.06a21.09,21.09,0,0,1-8.5,1.57c-7.56,0-12.26-4.75-12.26-11.58s4.4-12.47,11.8-12.47c8.41,0,10.39,7.1,10.39,11a8.2,8.2,0,0,1-.16,1.92Zm13.87-3.1c0-2-.88-6.79-6.54-6.79-4.87,0-6.88,4-7.27,6.79Z"/><path class="cls-1" d="M358.66,144.47l-.41-3.06h-.12a9.8,9.8,0,0,1-7.82,3.62c-5.16,0-7.53-3.52-7.53-6.58,0-5.49,5-8.72,15.11-8.62v-.41c0-1.45-.44-5.34-5.74-5.3a12.57,12.57,0,0,0-6.69,1.88l-1-2.84a15.71,15.71,0,0,1,8.3-2.18c7.81,0,9.43,5.38,9.43,9.78v8.12a35,35,0,0,0,.38,5.59ZM358,132.82c-5.39-.14-10.8.83-10.8,5.08,0,2.65,1.9,4,4.25,4a6.64,6.64,0,0,0,6.33-4,4,4,0,0,0,.22-1.31Z"/><path class="cls-1" d="M368.9,140.07a12.74,12.74,0,0,0,6.13,1.78c3.37,0,4.81-1.57,4.81-3.44,0-2.1-1.4-3.09-4.7-4.1-4.52-1.36-6.59-3.7-6.58-6.49,0-3.68,3.08-6.84,8.46-6.84a12.35,12.35,0,0,1,6.13,1.48l-1.06,3.13a10.37,10.37,0,0,0-5.25-1.46c-2.63,0-4.08,1.41-4.08,3.22,0,2,1.6,2.86,4.86,3.9,4.38,1.39,6.42,3.35,6.43,6.84,0,3.89-3.16,6.94-9.12,6.94a15,15,0,0,1-7.08-1.68Z"/><path class="cls-2" d="M405.81,116.07h-11v-3.55h26.43v3.55H410.13v28.4h-4.32Z"/><path class="cls-2" d="M444.07,132.72c0,8.36-6.48,12.31-12.66,12.31-6.92,0-12.21-4.79-12.21-11.8,0-7.44,5.48-12.25,12.61-12.25C439.24,121,444.07,126.07,444.07,132.72Zm-20.43.35c0,5.44,3.61,8.77,7.94,8.77s8.06-3.19,8.06-8.93c0-4-2.4-8.74-7.93-8.74S423.64,128.45,423.64,133.07Z"/><path class="cls-3" d="M464.55,144.47l-8.75-31.95h4.58l4.17,16.42c1,4,2,8.06,2.6,10.88h.09c.55-2.88,1.65-6.81,2.83-10.93l4.73-16.37h4.67l4.23,16.57c.94,3.84,1.85,7.65,2.36,10.64h.1c.67-3.12,1.66-6.71,2.79-10.8l4.75-16.41h4.46l-10,32h-4.56l-4.34-17A88.75,88.75,0,0,1,477,117.05h-.1a86.54,86.54,0,0,1-2.69,10.38l-5,17Z"/><path class="cls-3" d="M502.88,133.9c.1,5.17,3.95,7.77,8.65,7.77a18,18,0,0,0,7.2-1.27l.78,3.06A21.19,21.19,0,0,1,511,145c-7.56,0-12.26-4.75-12.26-11.58s4.4-12.47,11.8-12.47c8.41,0,10.39,7.1,10.39,11a8.2,8.2,0,0,1-.16,1.92Zm13.87-3.1c0-2-.88-6.79-6.53-6.79-4.87,0-6.89,4-7.28,6.79Z"/><path class="cls-3" d="M540.48,144.47l-.41-3.06H540a9.78,9.78,0,0,1-7.82,3.62c-5.15,0-7.52-3.52-7.52-6.58,0-5.49,5-8.72,15.1-8.62v-.41c0-1.45-.44-5.34-5.73-5.3a12.58,12.58,0,0,0-6.7,1.88l-1-2.84a15.73,15.73,0,0,1,8.3-2.18c7.81,0,9.44,5.38,9.44,9.78v8.12a35.08,35.08,0,0,0,.37,5.59Zm-.68-11.65c-5.4-.14-10.8.83-10.8,5.08,0,2.65,1.89,4,4.25,4a6.63,6.63,0,0,0,6.32-4,4,4,0,0,0,.23-1.31Z"/><path class="cls-3" d="M551.3,110.53h4.32v33.94H551.3Z"/><path class="cls-3" d="M568.33,114.78v6.76h6.52v3.29h-6.52v11.93c0,2.81.74,4.7,3.41,4.7a9.05,9.05,0,0,0,2.73-.35l.2,3.28a11.52,11.52,0,0,1-4.07.64,6.24,6.24,0,0,1-4.8-1.89c-1.22-1.33-1.7-3.52-1.7-6V124.83h-3.8v-3.29h3.8v-5.68Z"/><path class="cls-3" d="M580.07,110.53h4.32v15h.1a8.83,8.83,0,0,1,3.35-3.26,9.45,9.45,0,0,1,4.67-1.26c3.15,0,8.87,1.74,8.87,10.36v13.13h-4.32V131.8c0-4-1.66-7.26-6-7.26a7,7,0,0,0-6.32,4.33,5.21,5.21,0,0,0-.32,2.07v13.53h-4.32Z"/><path class="cls-1" d="M0,30Q23.69,15.08,47.38.21q36,22.6,72.11,45.18c-5.69,3.66-11.42,7.26-17.16,10.86Q74.84,39,47.33,21.81c-10,6.26-19.9,12.58-29.9,18.78-.11,11.58,0,23.18-.05,34.77C11.59,71.71,5.76,68.13,0,64.44,0,53,0,41.46,0,30Z"/><path class="cls-3" d="M150,64.4Q112.52,88,75,111.46c-4.59-2.88-9.2-5.74-13.79-8.65q0-10.77,0-21.55C65.84,84.09,70.41,87,75,89.88c19.2-12.07,38.49-24,57.63-36.17-.07-5.52,0-11.05,0-16.58-13.9-8.7-27.82-17.36-41.68-26.13,5.86-3.65,11.67-7.36,17.52-11Q129.24,13,150,26.05"/><path class="cls-2" d="M30.59,48.8c5.64-3.48,11.2-7.06,16.86-10.5,5.69,3.63,11.44,7.16,17.14,10.77C59.08,52.59,53.51,56,48,59.53c0,17.18,0,34.35,0,51.52,9,5.63,18,11.29,27,16.91q22.2-13.84,44.38-27.73c0,7.26,0,14.51,0,21.78C104.59,131.3,89.82,140.69,75,150c-14.82-9.25-29.6-18.57-44.42-27.8Q30.53,85.51,30.59,48.8Z"/><path class="cls-2" d="M194.21,20.47H169.7V11.69h59.59v8.78H204.66V92.16H194.21Z"/><path class="cls-2" d="M232.49,52.4c0-6.82-.17-12.63-.48-18h9.21l.4,11.33H242c2.7-7.75,9.06-12.64,16.08-12.64a12.15,12.15,0,0,1,2.92.29v9.88a16.35,16.35,0,0,0-3.57-.31c-7.4,0-12.63,5.58-14.06,13.44a27.87,27.87,0,0,0-.42,4.9V92.16H232.49Z"/><path class="cls-2" d="M303,92.16l-.92-7.3h-.32a21.46,21.46,0,0,1-17.66,8.61c-11.67,0-17.64-8.28-17.64-16.57,0-14,12.4-21.66,34.7-21.51V54.17c0-4.7-1.32-13.39-13.14-13.32a28.11,28.11,0,0,0-15.05,4.3l-2.38-7c4.78-3.09,11.77-5.06,19.06-5.06,17.65,0,21.95,12.06,21.95,23.63v21.6a90.06,90.06,0,0,0,.87,13.82Zm-1.63-29.49C290,62.43,277,64.47,277,75.64c0,6.89,4.53,10,9.8,10A14.46,14.46,0,0,0,300.84,76a11,11,0,0,0,.5-3.3Z"/><path class="cls-2" d="M378.34,7.39V77.26c0,5.14.2,10.91.48,14.9h-9.34l-.53-10h-.28c-3.21,6.45-10.16,11.3-19.59,11.3-14,0-24.78-11.83-24.78-29.34-.09-19.3,11.88-31,25.94-31,8.87,0,14.84,4.15,17.42,8.75h.24V7.39ZM367.9,57.91a22.12,22.12,0,0,0-.44-4.49,15.53,15.53,0,0,0-15.21-12.08c-10.87,0-17.37,9.54-17.37,22.22C334.88,75.29,340.71,85,352,85c7,0,13.41-4.75,15.34-12.61a16.85,16.85,0,0,0,.52-4.5Z"/><path class="cls-2" d="M401.72,65.18c.21,14.2,9.21,20,19.76,20a38.83,38.83,0,0,0,16-3l1.84,7.46c-3.67,1.68-10.09,3.68-19.26,3.68-17.74,0-28.41-11.82-28.41-29.14,0-17.5,10.31-31.16,27.17-31.16,18.83,0,23.76,16.52,23.76,27.15a25.77,25.77,0,0,1-.36,4.92Zm30.73-7.55c.11-6.62-2.71-17-14.48-17-10.72,0-15.28,9.69-16.12,17Z"/><path class="cls-2" d="M466.41,11.69V92.16H456V11.69Z"/><path class="cls-2" d="M533.79,7.39V77.26c0,5.14.2,10.91.48,14.9h-9.34l-.53-10h-.28c-3.21,6.45-10.16,11.3-19.59,11.3-14,0-24.78-11.83-24.78-29.34-.09-19.3,11.89-31,25.94-31,8.87,0,14.84,4.15,17.42,8.75h.24V7.39ZM523.35,57.91a22.12,22.12,0,0,0-.44-4.49A15.53,15.53,0,0,0,507.7,41.34c-10.87,0-17.37,9.54-17.37,22.22,0,11.73,5.84,21.47,17.16,21.47,7,0,13.41-4.75,15.34-12.61a16.85,16.85,0,0,0,.52-4.5Z"/><path class="cls-2" d="M557.17,65.18c.21,14.2,9.22,20,19.76,20a38.83,38.83,0,0,0,16-3l1.84,7.46c-3.67,1.68-10.09,3.68-19.26,3.68-17.74,0-28.41-11.82-28.41-29.14,0-17.5,10.31-31.16,27.17-31.16,18.83,0,23.76,16.52,23.76,27.15a25.77,25.77,0,0,1-.36,4.92Zm30.73-7.55c.11-6.62-2.71-17-14.48-17-10.72,0-15.28,9.69-16.12,17Z"/><path class="cls-2" d="M643.12,92.16l-.92-7.3h-.31a21.49,21.49,0,0,1-17.67,8.61c-11.66,0-17.64-8.28-17.64-16.57,0-14,12.4-21.66,34.7-21.51V54.17c0-4.7-1.32-13.39-13.14-13.32a28.08,28.08,0,0,0-15,4.3l-2.39-7c4.79-3.09,11.77-5.06,19.06-5.06,17.65,0,22,12.06,22,23.63v21.6a91.34,91.34,0,0,0,.87,13.82Zm-1.63-29.49c-11.36-.24-24.37,1.8-24.37,13,0,6.89,4.53,10,9.8,10A14.46,14.46,0,0,0,641,76a10.68,10.68,0,0,0,.5-3.3Z"/><polygon class="cls-2" points="722.38 83.46 700.69 83.46 700.69 83.4 685.35 83.4 685.35 83.46 677.42 83.46 677.42 83.07 721.78 18.05 721.78 11.69 700.69 11.69 700.69 4.54 685.35 4.54 685.35 11.69 667.45 11.69 667.45 20.39 708.28 20.39 708.28 20.75 663.66 86.08 663.66 92.16 685.35 92.16 685.35 98.74 700.69 98.74 700.69 92.16 722.38 92.16 722.38 83.46"/></g></g></svg>